Transformers 3  Dark Of The Moon In Hindi

Format                           : MPEG-PS
File size                        : 801 MiB
Duration                         : 2h 23mn
Overall bit rate                 : 780 Kbps

Video
ID                               : 224 (0xE0)
Format                           : MPEG Video
Format version                   : Version 2
Format settings, BVOP            : Yes
Format settings, Matrix          : Default
Duration                         : 2h 23mn
Bit rate mode                    : Constant
Bit rate                         : 700 Kbps
Nominal bit rate                 : 1 150 Kbps
Width                            : 352 pixels
Height                           : 288 pixels
Display aspect ratio             : 1.222
Frame rate                       : 25.000 fps
Standard                         : PAL
Color space                      : YUV
Bit depth                        : 8 bits
Scan type                        : Progressive
Compression mode                 : Lossy
Bits/(Pixel*Frame)               : 0.276
Stream size                      : 719 MiB (90%)

Audio
ID                               : 192 (0xC0)
Format                           : MPEG Audio
Format version                   : Version 1
Format profile                   : Layer 2
Duration                         : 2h 23mn
Bit rate mode                    : Constant
Bit rate                         : 64.0 Kbps
Channel(s)                       : 2 channels
Sampling rate                    : 48.0 KHz
Compression mode                 : Lossy
Stream size                      : 65.7 MiB (8%)

